<?xml version="1.0" encoding="UTF-8" standalone="no"?>
<!-- Created with Inkscape (http://www.inkscape.org/) -->

<svg
   inkscape:version="1.1.2 (0a00cf5339, 2022-02-04)"
   sodipodi:docname="graph.svg"
   viewBox="0 0 253.89439 119.8125"
   height="119.81251"
   width="253.89439"
   xml:space="preserve"
   id="svg2"
   version="1.1"
   xmlns:inkscape="http://www.inkscape.org/namespaces/inkscape"
   xmlns:sodipodi="http://sodipodi.sourceforge.net/DTD/sodipodi-0.dtd"
   xmlns:xlink="http://www.w3.org/1999/xlink"
   xmlns="http://www.w3.org/2000/svg"
   xmlns:svg="http://www.w3.org/2000/svg"><defs
     id="defs6"><clipPath
   clipPathUnits="userSpaceOnUse"
   id="clipPath42"><path
     d="M -1,-1 H 9.454 V 9.169 H -1 Z"
     id="path40" /></clipPath><clipPath
   clipPathUnits="userSpaceOnUse"
   id="clipPath58"><path
     d="M -1,-1 H 14.753 V 10.963 H -1 Z"
     id="path56" /></clipPath><clipPath
   clipPathUnits="userSpaceOnUse"
   id="clipPath90"><path
     d="M -1,-1 H 10.234 V 9.169 H -1 Z"
     id="path88" /></clipPath><clipPath
   clipPathUnits="userSpaceOnUse"
   id="clipPath106"><path
     d="M -1,-1 H 11.623 V 9.169 H -1 Z"
     id="path104" /></clipPath><clipPath
   clipPathUnits="userSpaceOnUse"
   id="clipPath138"><path
     d="M -1,-1 H 8.888 V 8.412 H -1 Z"
     id="path136" /></clipPath><clipPath
   clipPathUnits="userSpaceOnUse"
   id="clipPath154"><path
     d="M -1,-1 H 14.753 V 12.125 H -1 Z"
     id="path152" /></clipPath><clipPath
   clipPathUnits="userSpaceOnUse"
   id="clipPath176"><path
     d="M -1,-1 H 33.903 V 11.494 H -1 Z"
     id="path174" /></clipPath><clipPath
   clipPathUnits="userSpaceOnUse"
   id="clipPath192"><path
     d="M -1,-1 H 128.851 V 11.627 H -1 Z"
     id="path190" /></clipPath><clipPath
   clipPathUnits="userSpaceOnUse"
   id="clipPath208"><path
     d="M -1,-1 H 38.719 V 11.494 H -1 Z"
     id="path206" /></clipPath><g
   id="g4271">
      <symbol
   overflow="visible"
   id="symbol3768">
        <path
   style="stroke:none"
   d=""
   id="path153" />
      </symbol>
      <symbol
   overflow="visible"
   id="symbol4026">
        <path
   style="stroke:none"
   d="m 2.890625,-3.515625 c 0.8125,-0.265625 1.390625,-0.953125 1.390625,-1.75 0,-0.8125 -0.875,-1.375 -1.828125,-1.375 -1,0 -1.765625,0.59375 -1.765625,1.359375 0,0.328125 0.21875,0.515625 0.515625,0.515625 0.296875,0 0.5,-0.21875 0.5,-0.515625 0,-0.484375 -0.46875,-0.484375 -0.609375,-0.484375 0.296875,-0.5 0.953125,-0.625 1.3125,-0.625 0.421875,0 0.96875,0.21875 0.96875,1.109375 0,0.125 -0.03125,0.703125 -0.28125,1.140625 C 2.796875,-3.65625 2.453125,-3.625 2.203125,-3.625 2.125,-3.609375 1.890625,-3.59375 1.8125,-3.59375 c -0.078125,0.015625 -0.140625,0.03125 -0.140625,0.125 0,0.109375 0.0625,0.109375 0.234375,0.109375 h 0.4375 c 0.8125,0 1.1875,0.671875 1.1875,1.65625 0,1.359375 -0.6875,1.640625 -1.125,1.640625 -0.4375,0 -1.1875,-0.171875 -1.53125,-0.75 0.34375,0.046875 0.65625,-0.171875 0.65625,-0.546875 0,-0.359375 -0.265625,-0.5625 -0.546875,-0.5625 -0.25,0 -0.5625,0.140625 -0.5625,0.578125 0,0.90625 0.921875,1.5625 2.015625,1.5625 1.21875,0 2.125,-0.90625 2.125,-1.921875 0,-0.8125 -0.640625,-1.59375 -1.671875,-1.8125 z m 0,0"
   id="path6627" />
      </symbol>
    </g>
  <g
   id="g2089">
      <symbol
   overflow="visible"
   id="symbol9413">
        <path
   style="stroke:none"
   d=""
   id="path1149" />
      </symbol>
      <symbol
   overflow="visible"
   id="symbol3042">
        <path
   style="stroke:none"
   d="m 2.890625,-3.515625 c 0.8125,-0.265625 1.390625,-0.953125 1.390625,-1.75 0,-0.8125 -0.875,-1.375 -1.828125,-1.375 -1,0 -1.765625,0.59375 -1.765625,1.359375 0,0.328125 0.21875,0.515625 0.515625,0.515625 0.296875,0 0.5,-0.21875 0.5,-0.515625 0,-0.484375 -0.46875,-0.484375 -0.609375,-0.484375 0.296875,-0.5 0.953125,-0.625 1.3125,-0.625 0.421875,0 0.96875,0.21875 0.96875,1.109375 0,0.125 -0.03125,0.703125 -0.28125,1.140625 C 2.796875,-3.65625 2.453125,-3.625 2.203125,-3.625 2.125,-3.609375 1.890625,-3.59375 1.8125,-3.59375 c -0.078125,0.015625 -0.140625,0.03125 -0.140625,0.125 0,0.109375 0.0625,0.109375 0.234375,0.109375 h 0.4375 c 0.8125,0 1.1875,0.671875 1.1875,1.65625 0,1.359375 -0.6875,1.640625 -1.125,1.640625 -0.4375,0 -1.1875,-0.171875 -1.53125,-0.75 0.34375,0.046875 0.65625,-0.171875 0.65625,-0.546875 0,-0.359375 -0.265625,-0.5625 -0.546875,-0.5625 -0.25,0 -0.5625,0.140625 -0.5625,0.578125 0,0.90625 0.921875,1.5625 2.015625,1.5625 1.21875,0 2.125,-0.90625 2.125,-1.921875 0,-0.8125 -0.640625,-1.59375 -1.671875,-1.8125 z m 0,0"
   id="path1717" />
      </symbol>
    </g>
  <g
   id="g1915">
      <symbol
   overflow="visible"
   id="symbol8921">
        <path
   style="stroke:none"
   d=""
   id="path7755" />
      </symbol>
      <symbol
   overflow="visible"
   id="symbol3098">
        <path
   style="stroke:none"
   d="m 2.9375,-6.375 c 0,-0.25 0,-0.265625 -0.234375,-0.265625 C 2.078125,-6 1.203125,-6 0.890625,-6 v 0.3125 c 0.203125,0 0.78125,0 1.296875,-0.265625 v 5.171875 c 0,0.359375 -0.03125,0.46875 -0.921875,0.46875 h -0.3125 V 0 c 0.34375,-0.03125 1.203125,-0.03125 1.609375,-0.03125 0.390625,0 1.265625,0 1.609375,0.03125 v -0.3125 h -0.3125 c -0.90625,0 -0.921875,-0.109375 -0.921875,-0.46875 z m 0,0"
   id="path9917" />
      </symbol>
      <symbol
   overflow="visible"
   id="symbol8242">
        <path
   style="stroke:none"
   d="m 3.65625,-3.171875 v 0.328125 c 0,2.328125 -1.03125,2.78125 -1.609375,2.78125 -0.171875,0 -0.71875,-0.015625 -0.984375,-0.359375 0.4375,0 0.515625,-0.28125 0.515625,-0.453125 0,-0.3125 -0.234375,-0.453125 -0.453125,-0.453125 -0.15625,0 -0.453125,0.078125 -0.453125,0.46875 0,0.671875 0.53125,1.078125 1.375,1.078125 1.296875,0 2.515625,-1.359375 2.515625,-3.5 0,-2.6875 -1.15625,-3.359375 -2.046875,-3.359375 -0.546875,0 -1.03125,0.1875 -1.453125,0.625 -0.421875,0.453125 -0.640625,0.875 -0.640625,1.625 0,1.234375 0.875,2.21875 1.984375,2.21875 0.609375,0 1.015625,-0.421875 1.25,-1 z M 2.421875,-2.40625 c -0.15625,0 -0.625,0 -0.921875,-0.625 -0.1875,-0.375 -0.1875,-0.859375 -0.1875,-1.359375 0,-0.53125 0,-1 0.21875,-1.375 0.265625,-0.5 0.640625,-0.625 0.984375,-0.625 0.46875,0 0.796875,0.34375 0.96875,0.78125 0.109375,0.328125 0.15625,0.953125 0.15625,1.40625 0,0.828125 -0.34375,1.796875 -1.21875,1.796875 z m 0,0"
   id="path4648" />
      </symbol>
    </g>
  <g
   id="g1984">
      <symbol
   overflow="visible"
   id="symbol7805">
        <path
   style="stroke:none"
   d=""
   id="path2497" />
      </symbol>
      <symbol
   overflow="visible"
   id="symbol8465">
        <path
   style="stroke:none"
   d="m 2.9375,-6.375 c 0,-0.25 0,-0.265625 -0.234375,-0.265625 C 2.078125,-6 1.203125,-6 0.890625,-6 v 0.3125 c 0.203125,0 0.78125,0 1.296875,-0.265625 v 5.171875 c 0,0.359375 -0.03125,0.46875 -0.921875,0.46875 h -0.3125 V 0 c 0.34375,-0.03125 1.203125,-0.03125 1.609375,-0.03125 0.390625,0 1.265625,0 1.609375,0.03125 v -0.3125 h -0.3125 c -0.90625,0 -0.921875,-0.109375 -0.921875,-0.46875 z m 0,0"
   id="path2993" />
      </symbol>
      <symbol
   overflow="visible"
   id="symbol6096">
        <path
   style="stroke:none"
   d="m 2.890625,-3.515625 c 0.8125,-0.265625 1.390625,-0.953125 1.390625,-1.75 0,-0.8125 -0.875,-1.375 -1.828125,-1.375 -1,0 -1.765625,0.59375 -1.765625,1.359375 0,0.328125 0.21875,0.515625 0.515625,0.515625 0.296875,0 0.5,-0.21875 0.5,-0.515625 0,-0.484375 -0.46875,-0.484375 -0.609375,-0.484375 0.296875,-0.5 0.953125,-0.625 1.3125,-0.625 0.421875,0 0.96875,0.21875 0.96875,1.109375 0,0.125 -0.03125,0.703125 -0.28125,1.140625 C 2.796875,-3.65625 2.453125,-3.625 2.203125,-3.625 2.125,-3.609375 1.890625,-3.59375 1.8125,-3.59375 c -0.078125,0.015625 -0.140625,0.03125 -0.140625,0.125 0,0.109375 0.0625,0.109375 0.234375,0.109375 h 0.4375 c 0.8125,0 1.1875,0.671875 1.1875,1.65625 0,1.359375 -0.6875,1.640625 -1.125,1.640625 -0.4375,0 -1.1875,-0.171875 -1.53125,-0.75 0.34375,0.046875 0.65625,-0.171875 0.65625,-0.546875 0,-0.359375 -0.265625,-0.5625 -0.546875,-0.5625 -0.25,0 -0.5625,0.140625 -0.5625,0.578125 0,0.90625 0.921875,1.5625 2.015625,1.5625 1.21875,0 2.125,-0.90625 2.125,-1.921875 0,-0.8125 -0.640625,-1.59375 -1.671875,-1.8125 z m 0,0"
   id="path1600" />
      </symbol>
    </g>
  <g
   id="g3285">
      <symbol
   overflow="visible"
   id="symbol9648">
        <path
   style="stroke:none"
   d=""
   id="path1682" />
      </symbol>
      <symbol
   overflow="visible"
   id="symbol4460">
        <path
   style="stroke:none"
   d="M 3.890625,-3.734375 C 3.625,-3.71875 3.421875,-3.5 3.421875,-3.28125 c 0,0.140625 0.09375,0.296875 0.3125,0.296875 0.21875,0 0.453125,-0.171875 0.453125,-0.5625 C 4.1875,-4 3.765625,-4.40625 3,-4.40625 c -1.3125,0 -1.6875,1.015625 -1.6875,1.453125 0,0.78125 0.734375,0.921875 1.03125,0.984375 0.515625,0.109375 1.03125,0.21875 1.03125,0.765625 0,0.25 -0.21875,1.09375 -1.421875,1.09375 -0.140625,0 -0.90625,0 -1.140625,-0.53125 0.390625,0.046875 0.640625,-0.25 0.640625,-0.53125 0,-0.21875 -0.171875,-0.34375 -0.375,-0.34375 -0.265625,0 -0.5625,0.203125 -0.5625,0.65625 0,0.5625 0.578125,0.96875 1.421875,0.96875 1.625,0 2.015625,-1.203125 2.015625,-1.65625 0,-0.359375 -0.1875,-0.609375 -0.3125,-0.71875 -0.265625,-0.28125 -0.5625,-0.34375 -1,-0.421875 -0.359375,-0.078125 -0.75,-0.15625 -0.75,-0.609375 C 1.890625,-3.578125 2.125,-4.1875 3,-4.1875 c 0.25,0 0.75,0.078125 0.890625,0.453125 z m 0,0"
   id="path5437" />
      </symbol>
    </g>
  <g
   id="g850">
      <symbol
   overflow="visible"
   id="symbol4305">
        <path
   style="stroke:none"
   d=""
   id="path4877" />
      </symbol>
      <symbol
   overflow="visible"
   id="symbol4021">
        <path
   style="stroke:none"
   d="m 2.9375,-6.375 c 0,-0.25 0,-0.265625 -0.234375,-0.265625 C 2.078125,-6 1.203125,-6 0.890625,-6 v 0.3125 c 0.203125,0 0.78125,0 1.296875,-0.265625 v 5.171875 c 0,0.359375 -0.03125,0.46875 -0.921875,0.46875 h -0.3125 V 0 c 0.34375,-0.03125 1.203125,-0.03125 1.609375,-0.03125 0.390625,0 1.265625,0 1.609375,0.03125 v -0.3125 h -0.3125 c -0.90625,0 -0.921875,-0.109375 -0.921875,-0.46875 z m 0,0"
   id="path265" />
      </symbol>
      <symbol
   overflow="visible"
   id="symbol9700">
        <path
   style="stroke:none"
   d="m 2.890625,-3.515625 c 0.8125,-0.265625 1.390625,-0.953125 1.390625,-1.75 0,-0.8125 -0.875,-1.375 -1.828125,-1.375 -1,0 -1.765625,0.59375 -1.765625,1.359375 0,0.328125 0.21875,0.515625 0.515625,0.515625 0.296875,0 0.5,-0.21875 0.5,-0.515625 0,-0.484375 -0.46875,-0.484375 -0.609375,-0.484375 0.296875,-0.5 0.953125,-0.625 1.3125,-0.625 0.421875,0 0.96875,0.21875 0.96875,1.109375 0,0.125 -0.03125,0.703125 -0.28125,1.140625 C 2.796875,-3.65625 2.453125,-3.625 2.203125,-3.625 2.125,-3.609375 1.890625,-3.59375 1.8125,-3.59375 c -0.078125,0.015625 -0.140625,0.03125 -0.140625,0.125 0,0.109375 0.0625,0.109375 0.234375,0.109375 h 0.4375 c 0.8125,0 1.1875,0.671875 1.1875,1.65625 0,1.359375 -0.6875,1.640625 -1.125,1.640625 -0.4375,0 -1.1875,-0.171875 -1.53125,-0.75 0.34375,0.046875 0.65625,-0.171875 0.65625,-0.546875 0,-0.359375 -0.265625,-0.5625 -0.546875,-0.5625 -0.25,0 -0.5625,0.140625 -0.5625,0.578125 0,0.90625 0.921875,1.5625 2.015625,1.5625 1.21875,0 2.125,-0.90625 2.125,-1.921875 0,-0.8125 -0.640625,-1.59375 -1.671875,-1.8125 z m 0,0"
   id="path2900" />
      </symbol>
    </g>
  <g
   id="g7434">
      <symbol
   overflow="visible"
   id="symbol5126">
        <path
   style="stroke:none"
   d=""
   id="path2757" />
      </symbol>
      <symbol
   overflow="visible"
   id="symbol7763">
        <path
   style="stroke:none"
   d="m 2.046875,-3.984375 h 0.9375 c 0.203125,0 0.3125,0 0.3125,-0.203125 0,-0.109375 -0.109375,-0.109375 -0.28125,-0.109375 h -0.875 C 2.5,-5.71875 2.546875,-5.90625 2.546875,-5.96875 c 0,-0.171875 -0.125,-0.265625 -0.296875,-0.265625 -0.03125,0 -0.3125,0 -0.390625,0.359375 L 1.46875,-4.296875 h -0.9375 c -0.203125,0 -0.296875,0 -0.296875,0.1875 0,0.125 0.078125,0.125 0.28125,0.125 h 0.875 C 0.671875,-1.15625 0.625,-0.984375 0.625,-0.8125 0.625,-0.265625 1,0.109375 1.546875,0.109375 2.5625,0.109375 3.125,-1.34375 3.125,-1.421875 3.125,-1.53125 3.046875,-1.53125 3.015625,-1.53125 2.921875,-1.53125 2.90625,-1.5 2.859375,-1.390625 2.4375,-0.34375 1.90625,-0.109375 1.5625,-0.109375 c -0.203125,0 -0.3125,-0.125 -0.3125,-0.453125 0,-0.25 0.03125,-0.3125 0.0625,-0.484375 z m 0,0"
   id="path2312" />
      </symbol>
    </g>
  <g
   id="g1033">
      <symbol
   overflow="visible"
   id="symbol4525">
        <path
   style="stroke:none"
   d=""
   id="path8700" />
      </symbol>
      <symbol
   overflow="visible"
   id="symbol3316">
        <path
   style="stroke:none"
   d="m 4.75,-6.078125 c 0.078125,-0.109375 0.078125,-0.125 0.078125,-0.34375 H 2.40625 c -1.203125,0 -1.234375,-0.125 -1.265625,-0.3125 h -0.25 L 0.5625,-4.6875 h 0.25 c 0.03125,-0.15625 0.109375,-0.78125 0.25,-0.90625 0.0625,-0.0625 0.84375,-0.0625 0.96875,-0.0625 h 2.0625 C 3.984375,-5.5 3.203125,-4.40625 2.984375,-4.078125 2.078125,-2.734375 1.75,-1.34375 1.75,-0.328125 c 0,0.09375 0,0.546875 0.46875,0.546875 0.453125,0 0.453125,-0.453125 0.453125,-0.546875 V -0.84375 c 0,-0.546875 0.03125,-1.09375 0.109375,-1.625 0.046875,-0.234375 0.171875,-1.09375 0.625,-1.703125 z m 0,0"
   id="path863" />
      </symbol>
    </g>
  <g
   id="g7347">
      <symbol
   overflow="visible"
   id="symbol5345">
        <path
   style="stroke:none"
   d=""
   id="path2951" />
      </symbol>
      <symbol
   overflow="visible"
   id="symbol151">
        <path
   style="stroke:none"
   d="m 2.9375,-1.640625 v 0.859375 c 0,0.359375 -0.03125,0.46875 -0.765625,0.46875 H 1.96875 V 0 C 2.375,-0.03125 2.890625,-0.03125 3.3125,-0.03125 c 0.421875,0 0.9375,0 1.359375,0.03125 v -0.3125 h -0.21875 c -0.734375,0 -0.75,-0.109375 -0.75,-0.46875 V -1.640625 H 4.6875 v -0.3125 H 3.703125 v -4.53125 c 0,-0.203125 0,-0.265625 -0.171875,-0.265625 -0.078125,0 -0.109375,0 -0.1875,0.125 l -3.0625,4.671875 v 0.3125 z m 0.046875,-0.3125 H 0.5625 l 2.421875,-3.71875 z m 0,0"
   id="path9163" />
      </symbol>
    </g>
  <g
   id="g5850">
      <symbol
   overflow="visible"
   id="symbol8361">
        <path
   style="stroke:none"
   d=""
   id="path4306" />
      </symbol>
      <symbol
   overflow="visible"
   id="symbol422">
        <path
   style="stroke:none"
   d="m 4.46875,-2 c 0,-1.1875 -0.8125,-2.1875 -1.890625,-2.1875 -0.46875,0 -0.90625,0.15625 -1.265625,0.515625 V -5.625 c 0.203125,0.0625 0.53125,0.125 0.84375,0.125 1.234375,0 1.9375,-0.90625 1.9375,-1.03125 0,-0.0625 -0.03125,-0.109375 -0.109375,-0.109375 0,0 -0.03125,0 -0.078125,0.03125 C 3.703125,-6.515625 3.21875,-6.3125 2.546875,-6.3125 2.15625,-6.3125 1.6875,-6.390625 1.21875,-6.59375 1.140625,-6.625 1.125,-6.625 1.109375,-6.625 1,-6.625 1,-6.546875 1,-6.390625 V -3.4375 c 0,0.171875 0,0.25 0.140625,0.25 0.078125,0 0.09375,-0.015625 0.140625,-0.078125 C 1.390625,-3.421875 1.75,-3.96875 2.5625,-3.96875 c 0.515625,0 0.765625,0.453125 0.84375,0.640625 0.15625,0.375 0.1875,0.75 0.1875,1.25 0,0.359375 0,0.953125 -0.25,1.375 C 3.109375,-0.3125 2.734375,-0.0625 2.28125,-0.0625 c -0.71875,0 -1.296875,-0.53125 -1.46875,-1.109375 0.03125,0 0.0625,0.015625 0.171875,0.015625 0.328125,0 0.5,-0.25 0.5,-0.484375 0,-0.25 -0.171875,-0.5 -0.5,-0.5 C 0.84375,-2.140625 0.5,-2.0625 0.5,-1.609375 0.5,-0.75 1.1875,0.21875 2.296875,0.21875 3.453125,0.21875 4.46875,-0.734375 4.46875,-2 Z m 0,0"
   id="path5863" />
      </symbol>
    </g>
  <g
   id="g8040">
      <symbol
   overflow="visible"
   id="symbol5693">
        <path
   style="stroke:none"
   d=""
   id="path3599" />
      </symbol>
      <symbol
   overflow="visible"
   id="symbol4978">
        <path
   style="stroke:none"
   d="m 3.65625,-3.171875 v 0.328125 c 0,2.328125 -1.03125,2.78125 -1.609375,2.78125 -0.171875,0 -0.71875,-0.015625 -0.984375,-0.359375 0.4375,0 0.515625,-0.28125 0.515625,-0.453125 0,-0.3125 -0.234375,-0.453125 -0.453125,-0.453125 -0.15625,0 -0.453125,0.078125 -0.453125,0.46875 0,0.671875 0.53125,1.078125 1.375,1.078125 1.296875,0 2.515625,-1.359375 2.515625,-3.5 0,-2.6875 -1.15625,-3.359375 -2.046875,-3.359375 -0.546875,0 -1.03125,0.1875 -1.453125,0.625 -0.421875,0.453125 -0.640625,0.875 -0.640625,1.625 0,1.234375 0.875,2.21875 1.984375,2.21875 0.609375,0 1.015625,-0.421875 1.25,-1 z M 2.421875,-2.40625 c -0.15625,0 -0.625,0 -0.921875,-0.625 -0.1875,-0.375 -0.1875,-0.859375 -0.1875,-1.359375 0,-0.53125 0,-1 0.21875,-1.375 0.265625,-0.5 0.640625,-0.625 0.984375,-0.625 0.46875,0 0.796875,0.34375 0.96875,0.78125 0.109375,0.328125 0.15625,0.953125 0.15625,1.40625 0,0.828125 -0.34375,1.796875 -1.21875,1.796875 z m 0,0"
   id="path6396" />
      </symbol>
    </g>
  <g
   id="g1777">
      <symbol
   overflow="visible"
   id="symbol8337">
        <path
   style="stroke:none"
   d=""
   id="path6650" />
      </symbol>
      <symbol
   overflow="visible"
   id="symbol1649">
        <path
   style="stroke:none"
   d="m 4.671875,-3.703125 c 0,-0.546875 -0.265625,-0.703125 -0.4375,-0.703125 -0.25,0 -0.5,0.265625 -0.5,0.484375 0,0.125 0.046875,0.1875 0.15625,0.296875 0.21875,0.203125 0.34375,0.453125 0.34375,0.8125 0,0.421875 -0.609375,2.703125 -1.765625,2.703125 -0.515625,0 -0.75,-0.34375 -0.75,-0.875 0,-0.546875 0.28125,-1.28125 0.578125,-2.109375 0.078125,-0.171875 0.125,-0.3125 0.125,-0.5 0,-0.4375 -0.3125,-0.8125 -0.8125,-0.8125 -0.9375,0 -1.3125,1.453125 -1.3125,1.53125 0,0.109375 0.09375,0.109375 0.109375,0.109375 0.109375,0 0.109375,-0.03125 0.15625,-0.1875 0.296875,-1 0.71875,-1.234375 1.015625,-1.234375 0.078125,0 0.25,0 0.25,0.3125 0,0.25 -0.109375,0.53125 -0.171875,0.703125 -0.4375,1.15625 -0.5625,1.609375 -0.5625,2.046875 0,1.078125 0.875,1.234375 1.328125,1.234375 1.671875,0 2.25,-3.296875 2.25,-3.8125 z m 0,0"
   id="path3495" />
      </symbol>
      <symbol
   overflow="visible"
   id="symbol775">
        <path
   style="stroke:none"
   d=""
   id="path2216" />
      </symbol>
      <symbol
   overflow="visible"
   id="symbol6369">
        <path
   style="stroke:none"
   d="m 2.328125,-4.4375 c 0,-0.1875 0,-0.1875 -0.203125,-0.1875 -0.453125,0.4375 -1.078125,0.4375 -1.359375,0.4375 v 0.25 c 0.15625,0 0.625,0 1,-0.1875 v 3.546875 c 0,0.234375 0,0.328125 -0.6875,0.328125 H 0.8125 V 0 c 0.125,0 0.984375,-0.03125 1.234375,-0.03125 0.21875,0 1.09375,0.03125 1.25,0.03125 V -0.25 H 3.03125 c -0.703125,0 -0.703125,-0.09375 -0.703125,-0.328125 z m 0,0"
   id="path8564" />
      </symbol>
    </g>
  <g
   id="g6797">
      <symbol
   overflow="visible"
   id="symbol9364">
        <path
   style="stroke:none"
   d=""
   id="path8901" />
      </symbol>
      <symbol
   overflow="visible"
   id="symbol6585">
        <path
   style="stroke:none"
   d="m 4.671875,-3.703125 c 0,-0.546875 -0.265625,-0.703125 -0.4375,-0.703125 -0.25,0 -0.5,0.265625 -0.5,0.484375 0,0.125 0.046875,0.1875 0.15625,0.296875 0.21875,0.203125 0.34375,0.453125 0.34375,0.8125 0,0.421875 -0.609375,2.703125 -1.765625,2.703125 -0.515625,0 -0.75,-0.34375 -0.75,-0.875 0,-0.546875 0.28125,-1.28125 0.578125,-2.109375 0.078125,-0.171875 0.125,-0.3125 0.125,-0.5 0,-0.4375 -0.3125,-0.8125 -0.8125,-0.8125 -0.9375,0 -1.3125,1.453125 -1.3125,1.53125 0,0.109375 0.09375,0.109375 0.109375,0.109375 0.109375,0 0.109375,-0.03125 0.15625,-0.1875 0.296875,-1 0.71875,-1.234375 1.015625,-1.234375 0.078125,0 0.25,0 0.25,0.3125 0,0.25 -0.109375,0.53125 -0.171875,0.703125 -0.4375,1.15625 -0.5625,1.609375 -0.5625,2.046875 0,1.078125 0.875,1.234375 1.328125,1.234375 1.671875,0 2.25,-3.296875 2.25,-3.8125 z m 0,0"
   id="path8966" />
      </symbol>
      <symbol
   overflow="visible"
   id="symbol6163">
        <path
   style="stroke:none"
   d=""
   id="path6641" />
      </symbol>
      <symbol
   overflow="visible"
   id="symbol7405">
        <path
   style="stroke:none"
   d="M 3.515625,-1.265625 H 3.28125 c -0.015625,0.15625 -0.09375,0.5625 -0.1875,0.625 C 3.046875,-0.59375 2.515625,-0.59375 2.40625,-0.59375 H 1.125 c 0.734375,-0.640625 0.984375,-0.84375 1.390625,-1.171875 0.515625,-0.40625 1,-0.84375 1,-1.5 0,-0.84375 -0.734375,-1.359375 -1.625,-1.359375 -0.859375,0 -1.453125,0.609375 -1.453125,1.25 0,0.34375 0.296875,0.390625 0.375,0.390625 0.15625,0 0.359375,-0.125 0.359375,-0.375 0,-0.125 -0.046875,-0.375 -0.40625,-0.375 C 0.984375,-4.21875 1.453125,-4.375 1.78125,-4.375 c 0.703125,0 1.0625,0.546875 1.0625,1.109375 0,0.609375 -0.4375,1.078125 -0.65625,1.328125 L 0.515625,-0.265625 C 0.4375,-0.203125 0.4375,-0.1875 0.4375,0 h 2.875 z m 0,0"
   id="path3023" />
      </symbol>
    </g>
  <g
   id="g6475">
      <symbol
   overflow="visible"
   id="symbol8466">
        <path
   style="stroke:none"
   d=""
   id="path4332" />
      </symbol>
      <symbol
   overflow="visible"
   id="symbol3859">
        <path
   style="stroke:none"
   d="m 4.671875,-3.703125 c 0,-0.546875 -0.265625,-0.703125 -0.4375,-0.703125 -0.25,0 -0.5,0.265625 -0.5,0.484375 0,0.125 0.046875,0.1875 0.15625,0.296875 0.21875,0.203125 0.34375,0.453125 0.34375,0.8125 0,0.421875 -0.609375,2.703125 -1.765625,2.703125 -0.515625,0 -0.75,-0.34375 -0.75,-0.875 0,-0.546875 0.28125,-1.28125 0.578125,-2.109375 0.078125,-0.171875 0.125,-0.3125 0.125,-0.5 0,-0.4375 -0.3125,-0.8125 -0.8125,-0.8125 -0.9375,0 -1.3125,1.453125 -1.3125,1.53125 0,0.109375 0.09375,0.109375 0.109375,0.109375 0.109375,0 0.109375,-0.03125 0.15625,-0.1875 0.296875,-1 0.71875,-1.234375 1.015625,-1.234375 0.078125,0 0.25,0 0.25,0.3125 0,0.25 -0.109375,0.53125 -0.171875,0.703125 -0.4375,1.15625 -0.5625,1.609375 -0.5625,2.046875 0,1.078125 0.875,1.234375 1.328125,1.234375 1.671875,0 2.25,-3.296875 2.25,-3.8125 z m 0,0"
   id="path9430" />
      </symbol>
      <symbol
   overflow="visible"
   id="symbol2964">
        <path
   style="stroke:none"
   d=""
   id="path1825" />
      </symbol>
      <symbol
   overflow="visible"
   id="symbol630">
        <path
   style="stroke:none"
   d="m 1.90625,-2.328125 c 0.546875,0 0.9375,0.375 0.9375,1.125 0,0.859375 -0.515625,1.125 -0.90625,1.125 -0.28125,0 -0.90625,-0.078125 -1.1875,-0.5 0.328125,0 0.40625,-0.234375 0.40625,-0.390625 0,-0.21875 -0.171875,-0.375 -0.390625,-0.375 -0.1875,0 -0.390625,0.125 -0.390625,0.40625 0,0.65625 0.71875,1.078125 1.5625,1.078125 0.96875,0 1.640625,-0.65625 1.640625,-1.34375 0,-0.546875 -0.4375,-1.09375 -1.203125,-1.25 0.71875,-0.265625 0.984375,-0.78125 0.984375,-1.21875 0,-0.546875 -0.625,-0.953125 -1.40625,-0.953125 -0.765625,0 -1.359375,0.375 -1.359375,0.9375 0,0.234375 0.15625,0.359375 0.359375,0.359375 0.21875,0 0.359375,-0.15625 0.359375,-0.34375 0,-0.203125 -0.140625,-0.359375 -0.359375,-0.375 0.25,-0.296875 0.71875,-0.375 0.984375,-0.375 0.3125,0 0.75,0.15625 0.75,0.75 0,0.296875 -0.09375,0.625 -0.28125,0.828125 -0.21875,0.265625 -0.421875,0.28125 -0.765625,0.3125 -0.171875,0.015625 -0.1875,0.015625 -0.21875,0.015625 -0.015625,0 -0.078125,0.015625 -0.078125,0.09375 0,0.09375 0.0625,0.09375 0.1875,0.09375 z m 0,0"
   id="path5686" />
      </symbol>
    </g>
  <g
   id="g5141">
      <symbol
   overflow="visible"
   id="symbol7949">
        <path
   style="stroke:none"
   d=""
   id="path7228" />
      </symbol>
      <symbol
   overflow="visible"
   id="symbol8086">
        <path
   style="stroke:none"
   d="m 4.671875,-3.703125 c 0,-0.546875 -0.265625,-0.703125 -0.4375,-0.703125 -0.25,0 -0.5,0.265625 -0.5,0.484375 0,0.125 0.046875,0.1875 0.15625,0.296875 0.21875,0.203125 0.34375,0.453125 0.34375,0.8125 0,0.421875 -0.609375,2.703125 -1.765625,2.703125 -0.515625,0 -0.75,-0.34375 -0.75,-0.875 0,-0.546875 0.28125,-1.28125 0.578125,-2.109375 0.078125,-0.171875 0.125,-0.3125 0.125,-0.5 0,-0.4375 -0.3125,-0.8125 -0.8125,-0.8125 -0.9375,0 -1.3125,1.453125 -1.3125,1.53125 0,0.109375 0.09375,0.109375 0.109375,0.109375 0.109375,0 0.109375,-0.03125 0.15625,-0.1875 0.296875,-1 0.71875,-1.234375 1.015625,-1.234375 0.078125,0 0.25,0 0.25,0.3125 0,0.25 -0.109375,0.53125 -0.171875,0.703125 -0.4375,1.15625 -0.5625,1.609375 -0.5625,2.046875 0,1.078125 0.875,1.234375 1.328125,1.234375 1.671875,0 2.25,-3.296875 2.25,-3.8125 z m 0,0"
   id="path2408" />
      </symbol>
      <symbol
   overflow="visible"
   id="symbol4416">
        <path
   style="stroke:none"
   d=""
   id="path9542" />
      </symbol>
      <symbol
   overflow="visible"
   id="symbol9429">
        <path
   style="stroke:none"
   d="m 3.6875,-1.140625 v -0.25 H 2.90625 V -4.5 c 0,-0.140625 0,-0.203125 -0.140625,-0.203125 -0.09375,0 -0.125,0 -0.1875,0.109375 l -2.3125,3.203125 v 0.25 h 2.0625 v 0.5625 c 0,0.25 0,0.328125 -0.578125,0.328125 H 1.5625 V 0 C 1.921875,-0.015625 2.359375,-0.03125 2.609375,-0.03125 2.875,-0.03125 3.3125,-0.015625 3.671875,0 v -0.25 h -0.1875 C 2.90625,-0.25 2.90625,-0.328125 2.90625,-0.578125 v -0.5625 z M 2.375,-3.9375 v 2.546875 H 0.53125 Z m 0,0"
   id="path2424" />
      </symbol>
    </g>
  <g
   id="g3878">
      <symbol
   overflow="visible"
   id="symbol2946">
        <path
   style="stroke:none"
   d=""
   id="path8533" />
      </symbol>
      <symbol
   overflow="visible"
   id="symbol898">
        <path
   style="stroke:none"
   d="m 4.671875,-3.703125 c 0,-0.546875 -0.265625,-0.703125 -0.4375,-0.703125 -0.25,0 -0.5,0.265625 -0.5,0.484375 0,0.125 0.046875,0.1875 0.15625,0.296875 0.21875,0.203125 0.34375,0.453125 0.34375,0.8125 0,0.421875 -0.609375,2.703125 -1.765625,2.703125 -0.515625,0 -0.75,-0.34375 -0.75,-0.875 0,-0.546875 0.28125,-1.28125 0.578125,-2.109375 0.078125,-0.171875 0.125,-0.3125 0.125,-0.5 0,-0.4375 -0.3125,-0.8125 -0.8125,-0.8125 -0.9375,0 -1.3125,1.453125 -1.3125,1.53125 0,0.109375 0.09375,0.109375 0.109375,0.109375 0.109375,0 0.109375,-0.03125 0.15625,-0.1875 0.296875,-1 0.71875,-1.234375 1.015625,-1.234375 0.078125,0 0.25,0 0.25,0.3125 0,0.25 -0.109375,0.53125 -0.171875,0.703125 -0.4375,1.15625 -0.5625,1.609375 -0.5625,2.046875 0,1.078125 0.875,1.234375 1.328125,1.234375 1.671875,0 2.25,-3.296875 2.25,-3.8125 z m 0,0"
   id="path7383" />
      </symbol>
      <symbol
   overflow="visible"
   id="symbol780">
        <path
   style="stroke:none"
   d=""
   id="path1584" />
      </symbol>
      <symbol
   overflow="visible"
   id="symbol1402">
        <path
   style="stroke:none"
   d="m 1.078125,-3.890625 c 0.359375,0.09375 0.5625,0.09375 0.671875,0.09375 0.921875,0 1.46875,-0.625 1.46875,-0.734375 0,-0.078125 -0.046875,-0.09375 -0.078125,-0.09375 -0.015625,0 -0.03125,0 -0.0625,0.015625 -0.171875,0.0625 -0.53125,0.203125 -1.046875,0.203125 -0.203125,0 -0.5625,-0.015625 -1.015625,-0.1875 C 0.9375,-4.625 0.921875,-4.625 0.921875,-4.625 c -0.09375,0 -0.09375,0.078125 -0.09375,0.1875 v 2.046875 c 0,0.125 0,0.203125 0.109375,0.203125 0.0625,0 0.078125,0 0.140625,-0.09375 0.296875,-0.375 0.734375,-0.4375 0.96875,-0.4375 0.421875,0 0.609375,0.328125 0.640625,0.390625 0.125,0.234375 0.171875,0.5 0.171875,0.90625 0,0.203125 0,0.609375 -0.21875,0.921875 -0.171875,0.25 -0.46875,0.421875 -0.8125,0.421875 -0.453125,0 -0.921875,-0.25 -1.09375,-0.71875 0.265625,0.015625 0.40625,-0.15625 0.40625,-0.34375 0,-0.296875 -0.265625,-0.34375 -0.359375,-0.34375 0,0 -0.34375,0 -0.34375,0.375 0,0.625 0.578125,1.25 1.40625,1.25 0.890625,0 1.671875,-0.65625 1.671875,-1.546875 0,-0.78125 -0.59375,-1.5 -1.453125,-1.5 -0.3125,0 -0.671875,0.0625 -0.984375,0.328125 z m 0,0"
   id="path5275" />
      </symbol>
    </g>
  <g
   id="g7948">
      <symbol
   overflow="visible"
   id="symbol5279">
        <path
   style="stroke:none"
   d=""
   id="path8107" />
      </symbol>
      <symbol
   overflow="visible"
   id="symbol1395">
        <path
   style="stroke:none"
   d="m 4.671875,-3.703125 c 0,-0.546875 -0.265625,-0.703125 -0.4375,-0.703125 -0.25,0 -0.5,0.265625 -0.5,0.484375 0,0.125 0.046875,0.1875 0.15625,0.296875 0.21875,0.203125 0.34375,0.453125 0.34375,0.8125 0,0.421875 -0.609375,2.703125 -1.765625,2.703125 -0.515625,0 -0.75,-0.34375 -0.75,-0.875 0,-0.546875 0.28125,-1.28125 0.578125,-2.109375 0.078125,-0.171875 0.125,-0.3125 0.125,-0.5 0,-0.4375 -0.3125,-0.8125 -0.8125,-0.8125 -0.9375,0 -1.3125,1.453125 -1.3125,1.53125 0,0.109375 0.09375,0.109375 0.109375,0.109375 0.109375,0 0.109375,-0.03125 0.15625,-0.1875 0.296875,-1 0.71875,-1.234375 1.015625,-1.234375 0.078125,0 0.25,0 0.25,0.3125 0,0.25 -0.109375,0.53125 -0.171875,0.703125 -0.4375,1.15625 -0.5625,1.609375 -0.5625,2.046875 0,1.078125 0.875,1.234375 1.328125,1.234375 1.671875,0 2.25,-3.296875 2.25,-3.8125 z m 0,0"
   id="path8162" />
      </symbol>
      <symbol
   overflow="visible"
   id="symbol9434">
        <path
   style="stroke:none"
   d=""
   id="path513" />
      </symbol>
      <symbol
   overflow="visible"
   id="symbol9498">
        <path
   style="stroke:none"
   d="m 1.046875,-2.28125 c 0,-0.5625 0.046875,-1.078125 0.3125,-1.515625 0.234375,-0.375 0.609375,-0.625 1.0625,-0.625 0.203125,0 0.484375,0.046875 0.625,0.234375 C 2.875,-4.171875 2.71875,-4.046875 2.71875,-3.84375 c 0,0.171875 0.125,0.328125 0.328125,0.328125 0.21875,0 0.34375,-0.140625 0.34375,-0.34375 0,-0.40625 -0.296875,-0.765625 -0.984375,-0.765625 -1,0 -2.03125,0.921875 -2.03125,2.421875 0,1.796875 0.84375,2.34375 1.625,2.34375 0.84375,0 1.578125,-0.65625 1.578125,-1.5625 0,-0.890625 -0.703125,-1.546875 -1.515625,-1.546875 -0.5625,0 -0.859375,0.375 -1.015625,0.6875 z M 2,-0.078125 c -0.359375,0 -0.625,-0.203125 -0.78125,-0.515625 C 1.125,-0.796875 1.0625,-1.15625 1.0625,-1.5625 c 0,-0.6875 0.40625,-1.203125 0.96875,-1.203125 0.3125,0 0.53125,0.125 0.703125,0.375 0.171875,0.265625 0.171875,0.5625 0.171875,0.96875 0,0.390625 0,0.6875 -0.1875,0.96875 -0.15625,0.234375 -0.390625,0.375 -0.71875,0.375 z m 0,0"
   id="path3348" />
      </symbol>
    </g>
  <g
   id="g6090">
      <symbol
   overflow="visible"
   id="symbol6576">
        <path
   style="stroke:none"
   d=""
   id="path8482" />
      </symbol>
      <symbol
   overflow="visible"
   id="symbol1255">
        <path
   style="stroke:none"
   d="m 4.671875,-3.703125 c 0,-0.546875 -0.265625,-0.703125 -0.4375,-0.703125 -0.25,0 -0.5,0.265625 -0.5,0.484375 0,0.125 0.046875,0.1875 0.15625,0.296875 0.21875,0.203125 0.34375,0.453125 0.34375,0.8125 0,0.421875 -0.609375,2.703125 -1.765625,2.703125 -0.515625,0 -0.75,-0.34375 -0.75,-0.875 0,-0.546875 0.28125,-1.28125 0.578125,-2.109375 0.078125,-0.171875 0.125,-0.3125 0.125,-0.5 0,-0.4375 -0.3125,-0.8125 -0.8125,-0.8125 -0.9375,0 -1.3125,1.453125 -1.3125,1.53125 0,0.109375 0.09375,0.109375 0.109375,0.109375 0.109375,0 0.109375,-0.03125 0.15625,-0.1875 0.296875,-1 0.71875,-1.234375 1.015625,-1.234375 0.078125,0 0.25,0 0.25,0.3125 0,0.25 -0.109375,0.53125 -0.171875,0.703125 -0.4375,1.15625 -0.5625,1.609375 -0.5625,2.046875 0,1.078125 0.875,1.234375 1.328125,1.234375 1.671875,0 2.25,-3.296875 2.25,-3.8125 z m 0,0"
   id="path1556" />
      </symbol>
      <symbol
   overflow="visible"
   id="symbol435">
        <path
   style="stroke:none"
   d=""
   id="path912" />
      </symbol>
      <symbol
   overflow="visible"
   id="symbol300">
        <path
   style="stroke:none"
   d="m 3.734375,-4.203125 c 0.0625,-0.09375 0.0625,-0.109375 0.0625,-0.28125 H 1.96875 C 1.6875,-4.484375 1.609375,-4.5 1.359375,-4.515625 1,-4.546875 0.984375,-4.59375 0.96875,-4.703125 H 0.734375 l -0.25,1.484375 H 0.71875 c 0.015625,-0.109375 0.09375,-0.5625 0.203125,-0.640625 0.046875,-0.03125 0.625,-0.03125 0.71875,-0.03125 H 3.15625 c -0.21875,0.28125 -0.578125,0.71875 -0.71875,0.921875 -0.90625,1.1875 -1,2.296875 -1,2.703125 0,0.078125 0,0.40625 0.328125,0.40625 0.34375,0 0.34375,-0.3125 0.34375,-0.40625 v -0.28125 c 0,-1.34375 0.28125,-1.96875 0.578125,-2.34375 z m 0,0"
   id="path4105" />
      </symbol>
    </g>
  </defs><sodipodi:namedview
     id="namedview4"
     pagecolor="#ffffff"
     bordercolor="#666666"
     borderopacity="1.0"
     inkscape:pageshadow="2"
     inkscape:pageopacity="0.0"
     inkscape:pagecheckerboard="0"
     showgrid="false"
     fit-margin-top="0"
     fit-margin-left="0"
     fit-margin-right="0"
     fit-margin-bottom="0"
     inkscape:zoom="2.5581701"
     inkscape:cx="230.04725"
     inkscape:cy="73.490032"
     inkscape:window-width="1920"
     inkscape:window-height="1172"
     inkscape:window-x="1920"
     inkscape:window-y="0"
     inkscape:window-maximized="1"
     inkscape:current-layer="g8"
     inkscape:snap-bbox="true"
     inkscape:bbox-paths="true"
     inkscape:bbox-nodes="true"
     inkscape:snap-bbox-edge-midpoints="true"
     inkscape:snap-bbox-midpoints="true"
     inkscape:object-paths="true"
     inkscape:snap-intersection-paths="true"
     inkscape:snap-smooth-nodes="true"
     inkscape:snap-midpoints="true"
     inkscape:snap-object-midpoints="true"
     inkscape:snap-center="true"
     inkscape:snap-global="false" /><g
     inkscape:groupmode="layer"
     id="layer1"
     inkscape:label="highlighting"
     style="display:inline"
     transform="translate(4.0602974,-170.06522)" /><g
     id="g8"
     inkscape:groupmode="layer"
     inkscape:label="graph"
     transform="matrix(1.33333,0,0,-1.33333,-11.639803,936.31861)"><g
       id="g22"
       style="display:inline;stroke:#d40000;stroke-width:0.75;stroke-linecap:round;stroke-miterlimit:4;stroke-dasharray:none;stroke-opacity:1"><path
         d="m 64,666.775 64.91983,8.09559 L 192,650.775 l -112,-32 -16,48 H 16 v 0"
         style="fill:none;stroke:#d40000;stroke-width:0.75;stroke-linecap:round;stroke-linejoin:round;stroke-miterlimit:4;stroke-dasharray:none;stroke-opacity:1"
         id="path24"
         sodipodi:nodetypes="ccccccc" /></g><g
       id="g1053"
       style="display:inline;stroke:#d40000;stroke-width:0.75;stroke-linecap:round;stroke-miterlimit:4;stroke-dasharray:none;stroke-opacity:1"
       transform="translate(-3.2814042,32.294462)"><path
         d="m 43.490186,634.7424 24.786176,26.97426 68.293248,0.68703 48.47177,-27.59816 -52.84015,7.7706 -63.924868,19.14053"
         style="fill:none;stroke:#d40000;stroke-width:0.75;stroke-linecap:round;stroke-linejoin:round;stroke-miterlimit:4;stroke-dasharray:none;stroke-opacity:1"
         id="path1051"
         sodipodi:nodetypes="cccccc" /></g><path
       style="fill:#d40000;stroke:#d40000;stroke-width:0.75px;stroke-linecap:butt;stroke-linejoin:miter;stroke-opacity:1"
       d="M 181.75998,667.1 192,650.775"
       id="path1829" /><circle
       style="fill:#ffd5d5;stroke:#d40000;stroke-width:0.5625;stroke-linecap:round;stroke-linejoin:bevel;stroke-miterlimit:4;stroke-dasharray:none"
       id="path2192"
       cx="16"
       cy="-666.77502"
       r="1.8537487"
       transform="scale(1,-1)" /><circle
       style="fill:#ffd5d5;stroke:#d40000;stroke-width:0.5625;stroke-linecap:round;stroke-linejoin:bevel;stroke-miterlimit:4;stroke-dasharray:none"
       id="circle2274"
       cx="40.208782"
       cy="-667.03687"
       r="1.8537487"
       transform="scale(1,-1)" /><circle
       style="fill:#ffd5d5;stroke:#d40000;stroke-width:0.5625;stroke-linecap:round;stroke-linejoin:bevel;stroke-miterlimit:4;stroke-dasharray:none"
       id="circle2276"
       cx="64.994957"
       cy="-694.01111"
       r="1.8537487"
       transform="scale(1,-1)" /><circle
       style="fill:#ffd5d5;stroke:#d40000;stroke-width:0.5625;stroke-linecap:round;stroke-linejoin:bevel;stroke-miterlimit:4;stroke-dasharray:none"
       id="circle2278"
       cx="64"
       cy="-666.77502"
       r="1.8537487"
       transform="scale(1,-1)" /><circle
       style="fill:#ffd5d5;stroke:#d40000;stroke-width:0.5625;stroke-linecap:round;stroke-linejoin:bevel;stroke-miterlimit:4;stroke-dasharray:none"
       id="circle2280"
       cx="128.91983"
       cy="-674.87061"
       r="1.8537487"
       transform="scale(1,-1)" /><circle
       style="fill:#ffd5d5;stroke:#d40000;stroke-width:0.5625;stroke-linecap:round;stroke-linejoin:bevel;stroke-miterlimit:4;stroke-dasharray:none"
       id="circle2282"
       cx="133.28821"
       cy="-694.69818"
       r="1.8537487"
       transform="scale(1,-1)" /><circle
       style="fill:#ffd5d5;stroke:#d40000;stroke-width:0.5625;stroke-linecap:round;stroke-linejoin:bevel;stroke-miterlimit:4;stroke-dasharray:none"
       id="circle2284"
       cx="181.94553"
       cy="-666.66187"
       r="1.8537487"
       transform="scale(1,-1)" /><circle
       style="fill:#ffd5d5;stroke:#d40000;stroke-width:0.5625;stroke-linecap:round;stroke-linejoin:bevel;stroke-miterlimit:4;stroke-dasharray:none"
       id="circle2286"
       cx="192.31767"
       cy="-650.57574"
       r="1.8537487"
       transform="scale(1,-1)" /><circle
       style="fill:#ffd5d5;stroke:#d40000;stroke-width:0.5625;stroke-linecap:round;stroke-linejoin:bevel;stroke-miterlimit:4;stroke-dasharray:none"
       id="circle2288"
       cx="80"
       cy="-618.77502"
       r="1.8537487"
       transform="scale(1,-1)" /><g
       inkscape:label=""
       transform="matrix(0.75,0,0,-0.75,83.168256,733.76498)"
       id="g2690"><g
   id="g7289">
    <g
   style="fill:#000000;fill-opacity:1"
   id="g4834">
      <use
   xlink:href="#symbol4026"
   x="91.925003"
   y="81.962997"
   id="use1722"
   width="100%"
   height="100%" />
    </g>
  </g>
</g><g
       inkscape:label=""
       transform="matrix(0.750002,0,0,-0.750002,-21.757849,743.087)"
       id="g2942"><g
   id="g7381">
    <g
   style="fill:#000000;fill-opacity:1"
   id="g486">
      <use
   xlink:href="#symbol3042"
   x="91.925003"
   y="81.962997"
   id="use1987"
   width="100%"
   height="100%" />
    </g>
  </g>
</g><g
       inkscape:label=""
       transform="matrix(0.750002,0,0,-0.750002,67.357775,699.53402)"
       id="g3126"><g
   id="g3124">
    <g
   style="fill:#000000;fill-opacity:1"
   id="g3122">
      <use
   xlink:href="#symbol3042"
   x="91.925003"
   y="81.962997"
   id="use3120"
   width="100%"
   height="100%" />
    </g>
  </g>
</g><g
       inkscape:label=""
       transform="matrix(0.750002,0,0,-0.750002,-46.074675,730.72429)"
       id="g3255"><g
   id="g6219">
    <g
   style="fill:#000000;fill-opacity:1"
   id="g4848">
      <use
   xlink:href="#symbol3098"
   x="91.925003"
   y="81.962997"
   id="use6256"
   width="100%"
   height="100%" />
      <use
   xlink:href="#symbol8242"
   x="96.906303"
   y="81.962997"
   id="use6323"
   width="100%"
   height="100%" />
    </g>
  </g>
</g><g
       inkscape:label=""
       transform="matrix(0.750002,0,0,-0.750002,28.644969,746.84191)"
       id="g3440"><g
   id="g3914">
    <g
   style="fill:#000000;fill-opacity:1"
   id="g6942">
      <use
   xlink:href="#symbol8465"
   x="91.925003"
   y="81.962997"
   id="use2579"
   width="100%"
   height="100%" />
      <use
   xlink:href="#symbol6096"
   x="96.906303"
   y="81.962997"
   id="use2501"
   width="100%"
   height="100%" />
    </g>
  </g>
</g><g
       inkscape:label=""
       transform="matrix(0.750002,0,0,-0.750002,-60.600782,726.61262)"
       id="g3646"><g
   id="g4644">
    <g
   style="fill:#000000;fill-opacity:1"
   id="g814">
      <use
   xlink:href="#symbol4460"
   x="91.925003"
   y="81.962997"
   id="use5038"
   width="100%"
   height="100%" />
    </g>
  </g>
</g><g
       inkscape:label=""
       transform="matrix(0.750002,0,0,-0.750002,127.73455,708.83534)"
       id="g4118"><g
   id="g551">
    <g
   style="fill:#000000;fill-opacity:1"
   id="g5466">
      <use
   xlink:href="#symbol7763"
   x="91.925003"
   y="81.962997"
   id="use3218"
   width="100%"
   height="100%" />
    </g>
  </g>
</g><g
       inkscape:label=""
       transform="matrix(0.750002,0,0,-0.750002,-3.1208668,700.29436)"
       id="g4381"><g
   id="g1565">
    <g
   style="fill:#000000;fill-opacity:1"
   id="g2263">
      <use
   xlink:href="#symbol3316"
   x="91.925003"
   y="81.962997"
   id="use7953"
   width="100%"
   height="100%" />
    </g>
  </g>
</g><g
       inkscape:label=""
       transform="matrix(0.750002,0,0,-0.750002,20.895265,733.95968)"
       id="g4732"><g
   id="g798">
    <g
   style="fill:#000000;fill-opacity:1"
   id="g1547">
      <use
   xlink:href="#symbol151"
   x="91.925003"
   y="81.962997"
   id="use5933"
   width="100%"
   height="100%" />
    </g>
  </g>
</g><g
       inkscape:label=""
       transform="matrix(0.750002,0,0,-0.750002,87.780744,746.16982)"
       id="g5021"><g
   id="g5166">
    <g
   style="fill:#000000;fill-opacity:1"
   id="g5375">
      <use
   xlink:href="#symbol422"
   x="91.925003"
   y="81.962997"
   id="use316"
   width="100%"
   height="100%" />
    </g>
  </g>
</g><g
       inkscape:label=""
       transform="matrix(0.750002,0,0,-0.750002,25.616907,758.73264)"
       id="g5328"><g
   id="g4151">
    <g
   style="fill:#000000;fill-opacity:1"
   id="g4762">
      <use
   xlink:href="#symbol4978"
   x="91.925003"
   y="81.962997"
   id="use300"
   width="100%"
   height="100%" />
    </g>
  </g>
</g><g
       inkscape:label=""
       transform="matrix(0.750002,0,0,-0.750002,-32.595239,721.05585)"
       id="g5659"><g
   id="g4061">
    <g
   style="fill:#000000;fill-opacity:1"
   id="g9863">
      <use
   xlink:href="#symbol1649"
   x="91.925003"
   y="81.962997"
   id="use3180"
   width="100%"
   height="100%" />
    </g>
    <g
   style="fill:#000000;fill-opacity:1"
   id="g1377">
      <use
   xlink:href="#symbol6369"
   x="96.753998"
   y="83.457001"
   id="use5292"
   width="100%"
   height="100%" />
    </g>
  </g>
</g><g
       inkscape:label=""
       transform="matrix(0.750002,0,0,-0.750002,89.455214,717.6282)"
       id="g5702"><g
   id="g5700">
    <g
   style="fill:#000000;fill-opacity:1"
   id="g5698">
      <use
   xlink:href="#symbol422"
   x="91.925003"
   y="81.962997"
   id="use5696"
   width="100%"
   height="100%" />
    </g>
  </g>
</g><g
       inkscape:label=""
       transform="matrix(0.750002,0,0,-0.750002,-12.94215,759.15296)"
       id="g6066"><g
   id="g4290">
    <g
   style="fill:#000000;fill-opacity:1"
   id="g9785">
      <use
   xlink:href="#symbol6585"
   x="91.925003"
   y="81.962997"
   id="use9041"
   width="100%"
   height="100%" />
    </g>
    <g
   style="fill:#000000;fill-opacity:1"
   id="g7433">
      <use
   xlink:href="#symbol7405"
   x="96.753998"
   y="83.457001"
   id="use9692"
   width="100%"
   height="100%" />
    </g>
  </g>
</g><g
       inkscape:label=""
       transform="matrix(0.750002,0,0,-0.750002,-8.124523,733.44261)"
       id="g6483"><g
   id="g8481">
    <g
   style="fill:#000000;fill-opacity:1"
   id="g8550">
      <use
   xlink:href="#symbol3859"
   x="91.925003"
   y="81.962997"
   id="use9821"
   width="100%"
   height="100%" />
    </g>
    <g
   style="fill:#000000;fill-opacity:1"
   id="g9875">
      <use
   xlink:href="#symbol630"
   x="96.753998"
   y="83.457001"
   id="use7662"
   width="100%"
   height="100%" />
    </g>
  </g>
</g><g
       inkscape:label=""
       transform="matrix(0.750002,0,0,-0.750002,1.9394781,674.97402)"
       id="g6930"><g
   id="g3059">
    <g
   style="fill:#000000;fill-opacity:1"
   id="g447">
      <use
   xlink:href="#symbol8086"
   x="91.925003"
   y="81.962997"
   id="use9084"
   width="100%"
   height="100%" />
    </g>
    <g
   style="fill:#000000;fill-opacity:1"
   id="g705">
      <use
   xlink:href="#symbol9429"
   x="96.753998"
   y="83.457001"
   id="use1506"
   width="100%"
   height="100%" />
    </g>
  </g>
</g><g
       inkscape:label=""
       transform="matrix(0.750002,0,0,-0.750002,60.128004,740.85846)"
       id="g7407"><g
   id="g7673">
    <g
   style="fill:#000000;fill-opacity:1"
   id="g8346">
      <use
   xlink:href="#symbol898"
   x="91.925003"
   y="81.962997"
   id="use3965"
   width="100%"
   height="100%" />
    </g>
    <g
   style="fill:#000000;fill-opacity:1"
   id="g2130">
      <use
   xlink:href="#symbol1402"
   x="96.753998"
   y="83.457001"
   id="use7335"
   width="100%"
   height="100%" />
    </g>
  </g>
</g><g
       inkscape:label=""
       transform="matrix(0.750002,0,0,-0.750002,66.16337,759.04058)"
       id="g7914"><g
   id="g9839">
    <g
   style="fill:#000000;fill-opacity:1"
   id="g2370">
      <use
   xlink:href="#symbol1395"
   x="91.925003"
   y="81.962997"
   id="use7179"
   width="100%"
   height="100%" />
    </g>
    <g
   style="fill:#000000;fill-opacity:1"
   id="g7450">
      <use
   xlink:href="#symbol9498"
   x="96.753998"
   y="83.457001"
   id="use7643"
   width="100%"
   height="100%" />
    </g>
  </g>
</g><g
       inkscape:label=""
       transform="matrix(0.750002,0,0,-0.750002,115.26614,729.46093)"
       id="g8451"><g
   id="g8717">
    <g
   style="fill:#000000;fill-opacity:1"
   id="g9401">
      <use
   xlink:href="#symbol1255"
   x="91.925003"
   y="81.962997"
   id="use559"
   width="100%"
   height="100%" />
    </g>
    <g
   style="fill:#000000;fill-opacity:1"
   id="g5674">
      <use
   xlink:href="#symbol300"
   x="96.753998"
   y="83.457001"
   id="use722"
   width="100%"
   height="100%" />
    </g>
  </g>
</g></g></svg>
